<svg width="25" height="33" viewBox="0 0 25 33" fill="none" xmlns="http://www.w3.org/2000/svg">
<path d="M0 4.125C0 1.84658 1.86523 0 4.16667 0H14.9414C16.0482 0 17.1029 0.434607 17.8841 1.2085L23.7826 7.04473C24.5638 7.81816 25 8.8623 25 9.95801V28.875C25 31.1502 23.1315 33 20.8333 33H4.16667C1.86523 33 0 31.1502 0 28.875V4.125ZM21.875 28.875V10.3125H16.6667C15.5143 10.3125 14.5833 9.39082 14.5833 8.25V3.09375H4.16667C3.59115 3.09375 3.125 3.55523 3.125 4.125V28.875C3.125 29.4422 3.59115 29.9062 4.16667 29.9062H20.8333C21.4062 29.9062 21.875 29.4422 21.875 28.875Z" fill="#1976D2"/>
</svg>
