<svg width="38" height="29" viewBox="0 0 38 29" fill="none" xmlns="http://www.w3.org/2000/svg">
<path d="M11.3018 5.69643C9.33079 5.69643 7.73302 7.08752 7.73302 8.80357C7.73302 10.5196 9.33079 11.9107 11.3018 11.9107C13.2728 11.9107 14.8706 10.5196 14.8706 8.80357C14.8706 7.08752 13.2721 5.69643 11.3018 5.69643ZM33.2423 0H4.69213C2.13079 0 0 1.85458 0 4.14286V24.8571C0 27.1454 2.13011 29 4.69145 29H33.2416C35.8699 29 38 27.1454 38 24.8571V4.14286C38.0007 1.85458 35.9338 0 33.2423 0ZM34.4319 24.4234L24.2609 12.3897C24.075 12.092 23.6512 11.9107 23.1977 11.9107C22.7432 11.9107 22.3189 12.0899 22.0668 12.3884L14.1412 21.7163L11.3836 18.7321C11.1277 18.4551 10.7193 18.2914 10.2854 18.2914C9.85108 18.2914 9.44306 18.4551 9.18655 18.7321L3.57168 24.8046C3.57168 24.8027 3.57168 24.8065 3.57168 24.8046L3.56871 4.14286C3.56871 3.57179 4.10239 3.10714 4.7583 3.10714H33.3085C33.9644 3.10714 34.4981 3.57179 34.4981 4.14286V24.4234H34.4319Z" fill="#1976D2"/>
</svg>
