<svg width="26" height="35" viewBox="0 0 26 35" fill="none" xmlns="http://www.w3.org/2000/svg">
<path d="M1.5 13.1591C1.5 14.3649 1.90891 15.9393 2.67649 17.7798C3.43391 19.5959 4.49156 21.5571 5.67623 23.5023C8.04415 27.3905 10.8493 31.1009 12.5707 33.2816C12.8028 33.5728 13.1972 33.5728 13.4293 33.2816C15.1507 31.1009 17.9559 27.3905 20.3238 23.5023C21.5084 21.5571 22.5661 19.5959 23.3235 17.7798C24.0911 15.9393 24.5 14.3649 24.5 13.1591C24.5 6.70534 19.3315 1.5 13 1.5C6.66849 1.5 1.5 6.70534 1.5 13.1591ZM18.8333 13.1591C18.8333 16.3896 16.2357 19.0454 13 19.0454C9.76432 19.0454 7.16667 16.3896 7.16667 13.1591C7.16667 9.92853 9.76432 7.2727 13 7.2727C16.2357 7.2727 18.8333 9.92853 18.8333 13.1591Z" stroke="#1976D2" stroke-width="3"/>
</svg>
