<svg width="32" height="32" viewBox="0 0 32 32" fill="none" xmlns="http://www.w3.org/2000/svg">
<path fill-rule="evenodd" clip-rule="evenodd" d="M16 30C19.3739 30 22.469 28.8066 24.8862 26.8188C23.16 25.3815 20.6704 23.958 17.8009 23.4757C14.6095 22.9392 10.8669 23.55 7.05874 26.7733C9.48395 28.7883 12.6005 30 16 30ZM18.1325 21.5033C21.5101 22.0711 24.3858 23.7562 26.3449 25.4332C28.6154 22.9447 30 19.6341 30 16C30 8.26801 23.732 2 16 2C8.26801 2 2 8.26801 2 16C2 19.6092 3.36573 22.8994 5.60857 25.382C9.90876 21.6704 14.3009 20.8592 18.1325 21.5033ZM16 32C24.8366 32 32 24.8366 32 16C32 7.16344 24.8366 0 16 0C7.16344 0 0 7.16344 0 16C0 24.8366 7.16344 32 16 32ZM19.0909 13.4545C19.0909 15.0947 17.7613 16.4242 16.1212 16.4242C14.4811 16.4242 13.1515 15.0947 13.1515 13.4545C13.1515 11.8144 14.4811 10.4849 16.1212 10.4849C17.7613 10.4849 19.0909 11.8144 19.0909 13.4545ZM21.0909 13.4545C21.0909 16.1992 18.8659 18.4242 16.1212 18.4242C13.3765 18.4242 11.1515 16.1992 11.1515 13.4545C11.1515 10.7099 13.3765 8.48485 16.1212 8.48485C18.8659 8.48485 21.0909 10.7099 21.0909 13.4545Z" fill="white"/>
</svg>
