<svg width="93" height="93" viewBox="0 0 93 93" fill="none" xmlns="http://www.w3.org/2000/svg">
<path fill-rule="evenodd" clip-rule="evenodd" d="M46.5 91C58.1074 91 68.6769 86.5559 76.5996 79.2763C71.5073 74.1108 62.6596 68.1298 52.0499 66.3463C41.3388 64.5457 28.7348 67.0033 16.2331 79.1218C24.1741 86.4929 34.8107 91 46.5 91ZM52.3814 64.3739C63.5049 66.2438 72.7233 72.4891 78.0419 77.8905C86.0503 69.8436 91 58.7498 91 46.5C91 21.9233 71.0767 2 46.5 2C21.9233 2 2 21.9233 2 46.5C2 58.6677 6.88349 69.6947 14.7974 77.7281C27.7595 65.1408 41.0159 62.4634 52.3814 64.3739ZM46.5 93C72.1812 93 93 72.1812 93 46.5C93 20.8188 72.1812 0 46.5 0C20.8188 0 0 20.8188 0 46.5C0 72.1812 20.8188 93 46.5 93ZM59.2955 39.1023C59.2955 45.9745 53.7245 51.5455 46.8523 51.5455C39.9801 51.5455 34.4091 45.9745 34.4091 39.1023C34.4091 32.2301 39.9801 26.6591 46.8523 26.6591C53.7245 26.6591 59.2955 32.2301 59.2955 39.1023ZM61.2955 39.1023C61.2955 47.0791 54.829 53.5455 46.8523 53.5455C38.8756 53.5455 32.4091 47.0791 32.4091 39.1023C32.4091 31.1256 38.8756 24.6591 46.8523 24.6591C54.829 24.6591 61.2955 31.1256 61.2955 39.1023Z" fill="#DFDFDF"/>
</svg>
